<svg width="108" height="107" viewBox="0 0 108 107" fill="none" xmlns="http://www.w3.org/2000/svg">
<path d="M50.2164 4.24321C52.2323 1.98249 55.7677 1.98249 57.7836 4.2432V4.2432C59.4251 6.08411 62.1533 6.47637 64.2469 5.1725V5.1725C66.818 3.57128 70.2103 4.56734 71.5075 7.3044V7.3044C72.5639 9.5332 75.0711 10.6782 77.4473 10.017V10.017C80.3654 9.205 83.3396 11.1164 83.8132 14.1081V14.1081C84.1988 16.5442 86.2819 18.3492 88.7481 18.3842V18.3842C91.7767 18.4272 94.092 21.0992 93.7035 24.1031V24.1031C93.3872 26.5492 94.8774 28.8679 97.2338 29.5963V29.5963C100.128 30.4909 101.596 33.7068 100.377 36.4796V36.4796C99.3847 38.7375 100.161 41.3822 102.217 42.745V42.745C104.742 44.4185 105.245 47.918 103.294 50.2351V50.2351C101.705 52.1218 101.705 54.8782 103.294 56.7649V56.7649C105.245 59.082 104.742 62.5815 102.217 64.255V64.255C100.161 65.6178 99.3847 68.2625 100.377 70.5204V70.5204C101.596 73.2932 100.128 76.5091 97.2338 77.4037V77.4037C94.8774 78.1321 93.3872 80.4508 93.7035 82.8969V82.8969C94.092 85.9008 91.7767 88.5728 88.7481 88.6158V88.6158C86.2819 88.6508 84.1988 90.4558 83.8132 92.8919V92.8919C83.3396 95.8836 80.3654 97.795 77.4473 96.983V96.983C75.0711 96.3218 72.5639 97.4668 71.5075 99.6956V99.6956C70.2103 102.433 66.818 103.429 64.2469 101.828V101.828C62.1533 100.524 59.4251 100.916 57.7836 102.757V102.757C55.7677 105.018 52.2323 105.018 50.2164 102.757V102.757C48.5749 100.916 45.8467 100.524 43.7531 101.828V101.828C41.182 103.429 37.7897 102.433 36.4925 99.6956V99.6956C35.4361 97.4668 32.9289 96.3218 30.5527 96.983V96.983C27.6346 97.795 24.6604 95.8836 24.1868 92.8919V92.8919C23.8012 90.4558 21.7181 88.6508 19.2519 88.6158V88.6158C16.2233 88.5728 13.908 85.9008 14.2965 82.8969V82.8969C14.6128 80.4508 13.1226 78.1321 10.7662 77.4037V77.4037C7.87237 76.5091 6.40368 73.2932 7.6227 70.5204V70.5204C8.61534 68.2625 7.8388 65.6178 5.78303 64.255V64.255C3.25844 62.5815 2.75529 59.082 4.70611 56.7649V56.7649C6.29467 54.8782 6.29467 52.1218 4.70611 50.2351V50.2351C2.75529 47.918 3.25844 44.4185 5.78303 42.745V42.745C7.8388 41.3822 8.61534 38.7375 7.6227 36.4796V36.4796C6.40368 33.7068 7.87237 30.4909 10.7662 29.5963V29.5963C13.1226 28.8679 14.6128 26.5492 14.2965 24.1031V24.1031C13.908 21.0992 16.2233 18.4272 19.2519 18.3842V18.3842C21.7181 18.3492 23.8012 16.5442 24.1868 14.1081V14.1081C24.6604 11.1164 27.6346 9.205 30.5527 10.017V10.017C32.9289 10.6782 35.4361 9.5332 36.4925 7.3044V7.3044C37.7897 4.56734 41.182 3.57128 43.7531 5.1725V5.1725C45.8467 6.47637 48.5749 6.08411 50.2164 4.24321V4.24321Z" fill="#74D6D6"/>
<ellipse cx="64.1196" cy="44.0795" rx="6.62935" ry="7.79239" fill="black"/>
<ellipse cx="43.184" cy="44.0795" rx="6.62935" ry="7.79239" fill="black"/>
<path fill-rule="evenodd" clip-rule="evenodd" d="M31.6691 53.2676C32.4399 53.2676 33.0647 53.8924 33.0647 54.6632C33.0647 63.3754 42.0713 70.9458 53.8832 70.9458C65.6951 70.9458 74.7017 63.3754 74.7017 54.6632C74.7017 53.8924 75.3266 53.2676 76.0974 53.2676C76.8681 53.2676 77.493 53.8924 77.493 54.6632C77.493 65.4779 66.6084 73.7371 53.8832 73.7371C41.1581 73.7371 30.2734 65.4779 30.2734 54.6632C30.2734 53.8924 30.8983 53.2676 31.6691 53.2676Z" fill="black"/>
</svg>
