<svg width="107" height="107" viewBox="0 0 107 107" fill="none" xmlns="http://www.w3.org/2000/svg">
<path d="M49.7164 4.24321C51.7323 1.98249 55.2677 1.98249 57.2836 4.2432V4.2432C58.9251 6.08411 61.6533 6.47637 63.7469 5.1725V5.1725C66.318 3.57128 69.7103 4.56734 71.0075 7.3044V7.3044C72.0639 9.5332 74.5711 10.6782 76.9473 10.017V10.017C79.8654 9.205 82.8396 11.1164 83.3132 14.1081V14.1081C83.6988 16.5442 85.7819 18.3492 88.2481 18.3842V18.3842C91.2767 18.4272 93.592 21.0992 93.2035 24.1031V24.1031C92.8872 26.5492 94.3774 28.8679 96.7338 29.5963V29.5963C99.6276 30.4909 101.096 33.7068 99.8773 36.4796V36.4796C98.8847 38.7375 99.6612 41.3822 101.717 42.745V42.745C104.242 44.4185 104.745 47.918 102.794 50.2351V50.2351C101.205 52.1218 101.205 54.8782 102.794 56.7649V56.7649C104.745 59.082 104.242 62.5815 101.717 64.255V64.255C99.6612 65.6178 98.8847 68.2625 99.8773 70.5204V70.5204C101.096 73.2932 99.6276 76.5091 96.7338 77.4037V77.4037C94.3774 78.1321 92.8872 80.4508 93.2035 82.8969V82.8969C93.592 85.9008 91.2767 88.5728 88.2481 88.6158V88.6158C85.7819 88.6508 83.6988 90.4558 83.3132 92.8919V92.8919C82.8396 95.8836 79.8654 97.795 76.9473 96.983V96.983C74.5711 96.3218 72.0639 97.4668 71.0075 99.6956V99.6956C69.7103 102.433 66.318 103.429 63.7469 101.828V101.828C61.6533 100.524 58.9251 100.916 57.2836 102.757V102.757C55.2677 105.018 51.7323 105.018 49.7164 102.757V102.757C48.0749 100.916 45.3467 100.524 43.2531 101.828V101.828C40.682 103.429 37.2897 102.433 35.9925 99.6956V99.6956C34.9361 97.4668 32.4289 96.3218 30.0527 96.983V96.983C27.1346 97.795 24.1604 95.8836 23.6868 92.8919V92.8919C23.3012 90.4558 21.2181 88.6508 18.7519 88.6158V88.6158C15.7233 88.5728 13.408 85.9008 13.7965 82.8969V82.8969C14.1128 80.4508 12.6226 78.1321 10.2662 77.4037V77.4037C7.37237 76.5091 5.90368 73.2932 7.1227 70.5204V70.5204C8.11534 68.2625 7.3388 65.6178 5.28303 64.255V64.255C2.75844 62.5815 2.25529 59.082 4.20611 56.7649V56.7649C5.79467 54.8782 5.79467 52.1218 4.20611 50.2351V50.2351C2.25529 47.918 2.75844 44.4185 5.28303 42.745V42.745C7.3388 41.3822 8.11534 38.7375 7.1227 36.4796V36.4796C5.90368 33.7068 7.37237 30.4909 10.2662 29.5963V29.5963C12.6226 28.8679 14.1128 26.5492 13.7965 24.1031V24.1031C13.408 21.0992 15.7233 18.4272 18.7519 18.3842V18.3842C21.2181 18.3492 23.3012 16.5442 23.6868 14.1081V14.1081C24.1604 11.1164 27.1346 9.205 30.0527 10.017V10.017C32.4289 10.6782 34.9361 9.5332 35.9925 7.3044V7.3044C37.2897 4.56734 40.682 3.57128 43.2531 5.1725V5.1725C45.3467 6.47637 48.0749 6.08411 49.7164 4.24321V4.24321Z" fill="#FFAE11"/>
<ellipse cx="63.6196" cy="44.0795" rx="6.62935" ry="7.79239" fill="black"/>
<ellipse cx="42.684" cy="44.0795" rx="6.62935" ry="7.79239" fill="black"/>
<path fill-rule="evenodd" clip-rule="evenodd" d="M31.1691 53.2676C31.9399 53.2676 32.5647 53.8924 32.5647 54.6632C32.5647 63.3754 41.5713 70.9458 53.3832 70.9458C65.1951 70.9458 74.2017 63.3754 74.2017 54.6632C74.2017 53.8924 74.8266 53.2676 75.5974 53.2676C76.3681 53.2676 76.993 53.8924 76.993 54.6632C76.993 65.4779 66.1084 73.7371 53.3832 73.7371C40.6581 73.7371 29.7734 65.4779 29.7734 54.6632C29.7734 53.8924 30.3983 53.2676 31.1691 53.2676Z" fill="black"/>
</svg>
